#!OML:ASF Y:\EmotionMaleHayes\Project 1\Capture day 1\Session 1\Male1.ASF
:FULLY-SPECIFIED
:DEGREES
601
root -13.8423 17.2538 -17.8404 -109.337 93.0627 -113.202
lowerback 12.0475 1.90143 -12.2759
upperback 7.48453 1.84674 -4.25432
thorax 1.05466 0.839949 2.18498
lowerneck -19.7236 0.437877 2.91974
upperneck 42.8274 0.431756 2.80913
head 20.1599 1.60766 1.18598
rclavicle 7.95139e-016 -1.59028e-014
rhumerus -34.4696 7.9419 -84.2318
rradius 38.3699
rwrist 1.11899
rhand -7.8616 -30.104
rfingers 7.12502
rthumb 18.042 -59.2872
lclavicle 7.95139e-016 -1.59028e-014
lhumerus 1.40872 -15.836 65.5391
lradius 59.5095
lwrist 6.11918
lhand -29.4508 -29.0646
lfingers 7.12502
lthumb -2.7871 0.896913
rfemur -15.743 -4.48868 15.4943
rtibia 36.5865
rfoot -17.4621 -0.893228
rtoes 0.507602
lfemur -3.59333 2.49085 -23.4325
ltibia 12.9628
lfoot -16.411 10.5722
ltoes -10.2873
602
root -13.7161 17.2578 -17.8641 -105.016 93.27 -108.57
lowerback 12.0724 1.73264 -12.579
upperback 7.48033 1.59322 -4.22756
thorax 1.06965 0.703877 2.40737
lowerneck -19.7189 0.419133 2.92103
upperneck 42.8012 0.348988 2.8794
head 20.1422 1.58373 1.20082
rclavicle -2.46493e-014 -1.27222e-014
rhumerus -34.9626 7.18966 -83.6931
rradius 38.8515
rwrist -0.110393
rhand -8.37335 -29.8563
rfingers 7.12502
rthumb 17.5496 -59.0842
lclavicle -2.46493e-014 -1.27222e-014
lhumerus 1.68255 -16.2392 65.3142
lradius 60.8315
lwrist 6.28375
lhand -29.7416 -28.9088
lfingers 7.12502
lthumb -3.06791 1.04889
rfemur -15.9899 -4.78911 15.4177
rtibia 34.9755
rfoot -17.6662 -1.33696
rtoes 1.04107
lfemur -2.58569 2.39178 -23.825
ltibia 12.6152
lfoot -16.3738 10.3785
ltoes -21.667
603
root -13.5924 17.2572 -17.8937 -104.988 93.6048 -108.365
lowerback 12.2385 1.69494 -12.9273
upperback 7.24521 1.44177 -4.20695
thorax 0.74601 0.636783 2.63031
lowerneck -19.6048 0.320713 2.92363
upperneck 42.8666 0.178261 2.92185
head 20.1548 1.5295 1.18617
rclavicle -1.74931e-014 -2.06736e-014
rhumerus -35.8274 6.63106 -83.2286
rradius 39.6354
rwrist -1.59427
rhand -8.42829 -30.5113
rfingers 7.12502
rthumb 17.4967 -59.744
lclavicle -1.74931e-014 -2.06736e-014
lhumerus 1.74995 -16.7376 65.297
lradius 62.0474
lwrist 6.37571
lhand -29.7604 -28.6232
lfingers 7.12502
lthumb -3.08604 1.33419
rfemur -16.5617 -4.99886 15.3087
rtibia 33.559
rfoot -17.8951 -1.60311
rtoes 2.12799
lfemur -1.77957 2.51276 -24.3052
ltibia 12.3847
lfoot -16.2593 10.3506
ltoes -12.9396
604
root -13.4711 17.2559 -17.92 -105.389 93.9303 -108.592
lowerback 11.7982 1.60039 -13.2492
upperback 7.36871 1.38178 -4.19358
thorax 1.13027 0.573634 2.83725
lowerneck -19.5891 0.261693 2.88957
upperneck 42.6572 0.0208929 2.99326
head 20.0112 1.46326 1.18125
rclavicle 9.54166e-015 -3.18055e-015
rhumerus -36.0877 6.08883 -82.7358
rradius 40.2775
rwrist -2.80082
rhand -8.40455 -31.1194
rfingers 7.12502
rthumb 17.5195 -60.3499
lclavicle 9.54166e-015 -3.18055e-015
lhumerus 2.33116 -17.0734 65.1154
lradius 63.1412
lwrist 6.7053
lhand -29.7137 -28.5457
lfingers 7.12502
lthumb -3.04094 1.41231
rfemur -17.0799 -5.2135 15.2588
rtibia 32.0795
rfoot -17.9777 -1.93445
rtoes 2.63059
lfemur -0.962468 2.58193 -24.7642
ltibia 12.1116
lfoot -16.281 10.5443
ltoes -20.3728
605
root -13.3468 17.2528 -17.9435 -105.775 94.1715 -108.737
lowerback 11.7826 1.52086 -13.4792
upperback 7.33312 1.25229 -4.17946
thorax 1.12127 0.502632 2.99175
lowerneck -19.6019 0.218651 2.92513
upperneck 42.5592 -0.111097 3.02909
head 19.9519 1.4182 1.15832
rclavicle -7.95139e-016 -3.33958e-014
rhumerus -36.7758 5.53493 -82.293
rradius 41.2029
rwrist -3.96478
rhand -8.76274 -31.3257
rfingers 7.12502
rthumb 17.1748 -60.5867
lclavicle -7.95139e-016 -3.33958e-014
lhumerus 2.61239 -17.5479 64.8806
lradius 64.2684
lwrist 7.11375
lhand -29.731 -28.6944
lfingers 7.12502
lthumb -3.05764 1.26339
rfemur -17.3388 -5.32142 15.3089
rtibia 30.3803
rfoot -18.0433 -2.39241
rtoes 2.72139
lfemur -0.0253284 2.61445 -25.0946
ltibia 11.7634
lfoot -16.3601 10.6248
ltoes -15.2755
606
root -13.2152 17.2466 -17.9701 -108.872 94.3138 -111.592
lowerback 11.5342 1.483 -13.5296
upperback 7.36635 1.24165 -4.13663
thorax 1.29333 0.481917 3.07057
lowerneck -19.6021 0.179482 2.97022
upperneck 42.4219 -0.234755 3.04702
head 19.8629 1.37375 1.12444
rclavicle -1.82882e-014 -4.45278e-014
rhumerus -37.5528 5.15582 -81.9342
rradius 42.3032
rwrist -5.4297
rhand -9.34839 -31.6915
rfingers 7.12502
rthumb 16.6111 -61.0006
lclavicle -1.82882e-014 -4.45278e-014
lhumerus 2.96791 -18.1009 64.6363
lradius 65.308
lwrist 7.63283
lhand -29.7918 -28.8111
lfingers 7.12502
lthumb -3.11635 1.14583
rfemur -17.678 -5.19825 15.5723
rtibia 28.8656
rfoot -18.0512 -2.78404
rtoes 2.28815
lfemur 0.94875 2.91699 -25.1835
ltibia 11.4137
lfoot -16.5913 10.4391
ltoes -25.1509
607
root -13.0828 17.238 -17.9997 -111.504 94.6103 -113.935
lowerback 11.264 1.45808 -13.6872
upperback 7.40472 1.2473 -4.14892
thorax 1.48381 0.467341 3.14766
lowerneck -19.5635 0.140988 2.93538
upperneck 42.3093 -0.384161 3.22564
head 19.7817 1.33121 1.1807
rclavicle -1.98785e-014 -6.20208e-014
rhumerus -37.9527 4.85093 -81.6451
rradius 42.7288
rwrist -6.77024
rhand -9.98566 -31.9054
rfingers 7.12502
rthumb 15.9975 -61.2648
lclavicle -1.98785e-014 -6.20208e-014
lhumerus 3.33547 -18.7248 64.4047
lradius 66.2334
lwrist 8.23188
lhand -29.9337 -28.8513
lfingers 7.12502
lthumb -3.25342 1.10364
rfemur -18.0561 -5.24674 15.6454
rtibia 27.5046
rfoot -18.0218 -2.89893
rtoes 2.1231
lfemur 1.95354 3.28202 -25.4575
ltibia 11.0626
lfoot -16.8123 10.3747
ltoes -15.2346
608
root -12.9528 17.2257 -18.0298 -113.04 95.0503 -115.217
lowerback 11.1011 1.42182 -13.952
upperback 7.40675 1.21218 -4.27355
thorax 1.5875 0.440199 3.16563
lowerneck -19.6929 0.101282 3.04131
upperneck 42.2602 -0.601456 3.39018
head 19.794 1.28499 1.19513
rclavicle 1.11319e-014 3.81667e-014
rhumerus -38.1148 4.28566 -81.4557
rradius 42.7814
rwrist -7.65777
rhand -10.495 -32.0392
rfingers 7.12502
rthumb 15.5069 -61.4374
lclavicle 1.11319e-014 3.81667e-014
lhumerus 3.67358 -19.2923 64.081
lradius 67.116
lwrist 8.75255
lhand -30.0636 -29.1487
lfingers 7.12502
lthumb -3.37885 0.804249
rfemur -18.3687 -5.56031 15.5141
rtibia 25.9623
rfoot -17.9327 -2.73434
rtoes 2.41492
lfemur 2.88581 3.3735 -25.9992
ltibia 10.7338
lfoot -17.214 10.558
ltoes -20.3489
609
root -12.8226 17.2098 -18.0577 -115.796 95.3364 -117.823
lowerback 10.9568 1.35473 -13.9382
upperback 7.3709 1.14869 -4.42498
thorax 1.63989 0.41147 3.00658
lowerneck -20.0294 0.0752184 3.27809
upperneck 42.2971 -0.801243 3.39805
head 19.9212 1.246 1.11801
rclavicle -3.65764e-014 -9.70069e-014
rhumerus -38.3081 3.6254 -81.3936
rradius 42.9223
rwrist -8.32932
rhand -10.9598 -32.1144
rfingers 7.12502
rthumb 15.0592 -61.5467
lclavicle -3.65764e-014 -9.70069e-014
lhumerus 4.14121 -19.776 63.6488
lradius 67.8225
lwrist 9.24245
lhand -29.9553 -29.7357
lfingers 7.12502
lthumb -3.27432 0.218952
rfemur -18.7481 -5.9644 15.6831
rtibia 24.3511
rfoot -17.6788 -2.43112
rtoes 2.3233
lfemur 3.71343 3.31938 -26.3352
ltibia 10.3975
lfoot -17.7232 10.8955
ltoes -16.2547
610
root -12.6886 17.1937 -18.0842 -115.413 95.6704 -117.199
lowerback 10.4931 1.25588 -14.1371
upperback 7.54311 1.11932 -4.46366
thorax 2.09149 0.3619 3.08384
lowerneck -20.1163 0.0156495 3.29455
upperneck 42.1337 -0.905028 3.30203
head 19.8375 1.18453 1.03562
rclavicle -7.95139e-015 -6.36111e-015
rhumerus -38.271 3.03883 -81.0674
rradius 42.9386
rwrist -9.01558
rhand -11.4766 -32.1253
rfingers 7.12502
rthumb 14.5613 -61.5942
lclavicle -7.95139e-015 -6.36111e-015
lhumerus 4.89178 -20.3276 63.3598
lradius 68.3759
lwrist 9.78417
lhand -29.828 -29.9666
lfingers 7.12502
lthumb -3.15137 -0.0101019
rfemur -18.9783 -6.6572 15.6402
rtibia 22.726
rfoot -17.444 -2.0424
rtoes 2.28316
lfemur 4.56406 3.41789 -26.8062
ltibia 10.1567
lfoot -18.0593 10.9765
ltoes -17.1262
611
root -12.5527 17.1771 -18.1108 -111.881 96.1298 -113.432
lowerback 10.7384 1.1339 -14.5225
upperback 7.22541 0.831178 -4.51557
thorax 1.66336 0.23976 3.26001
lowerneck -19.6733 -0.0276719 3.18291
upperneck 42.103 -0.813467 3.13157
head 19.6831 1.17828 0.984795
rclavicle 0 7.95139e-015
rhumerus -39.2871 2.65804 -80.6542
rradius 43.5885
rwrist -9.69742
rhand -11.7251 -32.4004
rfingers 7.12502
rthumb 14.3219 -61.8864
lclavicle 0 7.95139e-015
lhumerus 4.64815 -21.1889 63.3669
lradius 69.0396
lwrist 10.095
lhand -30.0312 -30.0673
lfingers 7.12502
lthumb -3.34756 -0.113826
rfemur -19.1901 -7.39918 15.2403
rtibia 21.2418
rfoot -17.5716 -1.65209
rtoes 3.14091
lfemur 5.31986 3.55375 -27.548
ltibia 10.0997
lfoot -18.2595 10.7411
ltoes -17.3245
612
root -12.4188 17.1566 -18.1359 -109.989 96.399 -111.406
lowerback 10.3497 1.06302 -14.755
upperback 7.20058 0.783691 -4.44302
thorax 1.86105 0.19229 3.47133
lowerneck -19.3358 -0.139279 2.88932
upperneck 41.8207 -0.91638 3.24412
head 19.4054 1.09716 1.05431
rclavicle 2.14687e-014 4.6118e-014
rhumerus -40.4585 1.8586 -80.0142
rradius 45.2758
rwrist -10.3159
rhand -11.6965 -32.9974
rfingers 7.12502
rthumb 14.3494 -62.4815
lclavicle 2.14687e-014 4.6118e-014
lhumerus 5.04091 -22.0076 63.4171
lradius 69.4101
lwrist 10.0359
lhand -30.3125 -30.3785
lfingers 7.12502
lthumb -3.61923 -0.429496
rfemur -19.5848 -7.87399 15.1663
rtibia 20.0015
rfoot -17.8407 -1.37097
rtoes 4.26238
lfemur 5.93684 3.67535 -27.9808
ltibia 10.1786
lfoot -18.5628 10.5083
ltoes -18.1913
613
root -12.2884 17.13 -18.1585 -109.772 96.5335 -111.022
lowerback 9.99277 1.03651 -14.8253
upperback 7.21684 0.804331 -4.31142
thorax 2.07066 0.178914 3.65098
lowerneck -18.8182 -0.387704 2.15425
upperneck 41.3284 -1.30193 3.92213
head 18.9692 0.909439 1.40706
rclavicle -3.18055e-015 6.36111e-015
rhumerus -41.4785 1.13297 -79.4554
rradius 46.8201
rwrist -10.6629
rhand -11.7746 -33.7638
rfingers 7.12502
rthumb 14.2742 -63.2532
lclavicle -3.18055e-015 6.36111e-015
lhumerus 5.69285 -22.8316 63.3823
lradius 69.6411
lwrist 10.0743
lhand -30.4633 -30.5955
lfingers 7.12502
lthumb -3.76489 -0.649027
rfemur -19.9695 -8.34652 15.3743
rtibia 18.7449
rfoot -17.7365 -1.13375
rtoes 3.70153
lfemur 6.55801 3.85711 -28.1408
ltibia 10.3004
lfoot -19.0579 10.2779
ltoes -19.0478
614
root -12.1565 17.099 -18.182 -108.905 96.7634 -109.976
lowerback 9.61677 0.972503 -14.9229
upperback 7.2692 0.789847 -4.26203
thorax 2.33936 0.146751 3.761
lowerneck -19.1435 -0.525393 2.39226
upperneck 41.7132 -1.35434 3.3021
head 19.2881 0.851544 1.072
rclavicle -2.34566e-014 -6.83819e-014
rhumerus -42.0085 0.591995 -79.0537
rradius 47.516
rwrist -10.9096
rhand -11.9714 -34.2046
rfingers 7.12502
rthumb 14.0845 -63.7073
lclavicle -2.34566e-014 -6.83819e-014
lhumerus 6.35848 -23.6778 63.1752
lradius 69.9014
lwrist 10.176
lhand -30.524 -30.7794
lfingers 7.12502
lthumb -3.82347 -0.833907
rfemur -20.2892 -8.98882 15.4392
rtibia 17.471
rfoot -17.5449 -0.878958
rtoes 1.8781
lfemur 7.23209 3.89817 -28.5016
ltibia 10.3011
lfoot -19.387 10.192
ltoes -13.6993
615
root -12.0199 17.0654 -18.2073 -107.035 97.1011 -107.917
lowerback 9.04963 0.830916 -15.0649
upperback 7.399 0.729158 -4.32026
thorax 2.8114 0.0803065 3.78462
lowerneck -18.9411 -0.609062 2.32292
upperneck 41.5346 -1.45105 3.2737
head 19.1186 0.791118 1.0403
rclavicle -1.78906e-014 -6.67916e-014
rhumerus -42.3683 0.175128 -78.8109
rradius 47.9253
rwrist -11.1979
rhand -12.2247 -34.2166
rfingers 7.12502
rthumb 13.8405 -63.7362
lclavicle -1.78906e-014 -6.67916e-014
lhumerus 6.99867 -24.3962 62.9163
lradius 70.0462
lwrist 9.92151
lhand -30.5292 -30.9496
lfingers 7.12502
lthumb -3.82854 -1.00421
rfemur -20.4928 -9.49916 15.2654
rtibia 16.1908
rfoot -17.4206 -0.758172
rtoes 0.877071
lfemur 7.90806 3.92576 -29.06
ltibia 10.3326
lfoot -19.5241 10.1622
ltoes -16.16
